<svg width="10" height="8" viewBox="0 0 10 8" fill="none" xmlns="http://www.w3.org/2000/svg">
<path d="M3.41383 7.93597L0.325832 4.86397C0.293832 4.8213 0.277832 4.77597 0.277832 4.72797C0.277832 4.67997 0.293832 4.63464 0.325832 4.59197L1.38183 3.55197C1.41383 3.51997 1.45383 3.50397 1.50183 3.50397C1.54983 3.50397 1.59517 3.51997 1.63783 3.55197L3.36583 5.27997C3.39783 5.31197 3.43783 5.32797 3.48583 5.32797C3.53383 5.32797 3.57917 5.31197 3.62183 5.27997C4.69917 4.12797 6.31517 2.41064 8.46983 0.127969C8.50183 0.0853024 8.5445 0.0639691 8.59783 0.0639691C8.65117 0.0639691 8.69383 0.0799689 8.72583 0.111969L9.81383 1.15197C9.8565 1.18397 9.87783 1.22397 9.87783 1.27197C9.87783 1.31997 9.86183 1.3653 9.82983 1.40797C8.45383 2.85864 6.4005 5.03464 3.66983 7.93597C3.63783 7.97864 3.59517 7.99997 3.54183 7.99997C3.4885 7.99997 3.44583 7.97864 3.41383 7.93597Z" fill="#214A4A"/>
</svg>
