<svg width="25" height="25" viewBox="0 0 25 25" fill="none" xmlns="http://www.w3.org/2000/svg">
<path d="M20.695 16.5592C20.6172 16.4655 20.5408 16.3717 20.4658 16.2812C19.4346 15.0339 18.8107 14.2811 18.8107 10.75C18.8107 8.92187 18.3733 7.42186 17.5113 6.29686C16.8757 5.46577 16.0165 4.8353 14.884 4.36937C14.8694 4.36126 14.8564 4.35062 14.8455 4.33796C14.4382 2.9739 13.3235 2.0603 12.0663 2.0603C10.8091 2.0603 9.69489 2.9739 9.28755 4.33655C9.27668 4.34875 9.26385 4.35905 9.24958 4.36702C6.60677 5.45499 5.3224 7.54233 5.3224 10.7486C5.3224 14.2811 4.69943 15.0339 3.66724 16.2798C3.59224 16.3703 3.51583 16.4622 3.43802 16.5578C3.23702 16.8002 3.10967 17.0951 3.07104 17.4076C3.03241 17.7201 3.08412 18.0372 3.22005 18.3212C3.50927 18.9306 4.12568 19.3089 4.82927 19.3089H19.3085C20.0088 19.3089 20.621 18.9311 20.9111 18.3245C21.0477 18.0404 21.0999 17.7231 21.0616 17.4102C21.0233 17.0974 20.8961 16.802 20.695 16.5592ZM12.0663 23.0603C12.7437 23.0598 13.4082 22.8759 13.9896 22.5282C14.5709 22.1805 15.0473 21.682 15.3682 21.0855C15.3833 21.0569 15.3908 21.0249 15.3899 20.9925C15.3889 20.9602 15.3797 20.9287 15.363 20.901C15.3463 20.8733 15.3227 20.8504 15.2945 20.8345C15.2664 20.8186 15.2346 20.8103 15.2022 20.8103H8.9313C8.89892 20.8102 8.86707 20.8185 8.83883 20.8343C8.8106 20.8502 8.78696 20.8731 8.7702 20.9008C8.75345 20.9285 8.74415 20.9601 8.74322 20.9924C8.74229 21.0248 8.74976 21.0568 8.7649 21.0855C9.08577 21.6819 9.56208 22.1804 10.1433 22.5281C10.7245 22.8758 11.389 23.0597 12.0663 23.0603Z" fill="black"/>
</svg>
